<svg width="322" height="222" viewBox="0 0 322 222" fill="none" xmlns="http://www.w3.org/2000/svg">
<g clip-path="url(#clip0_1_7)">
<path fill-rule="evenodd" clip-rule="evenodd" d="M136.919 0C164.053 0.000874441 186.049 21.5038 186.05 48.0199C186.05 49.4986 185.981 50.9711 185.885 52.438H227.269C267.521 52.438 283.328 103.456 249.835 125.276L206.042 153.803C196.614 159.947 199.199 174.127 210.218 176.712C213.821 177.556 217.626 176.855 220.667 174.788L246.076 156.469C247.04 155.775 248.203 155.4 249.397 155.4H319.181C321.929 155.4 323.047 158.886 320.8 160.445L246.931 211.675C233.117 221.067 215.849 224.247 199.485 220.409C149.445 208.672 137.717 144.308 180.534 116.411L209.754 97.3786H164.913H136.216C127.976 97.3786 120.197 95.4189 113.35 91.9585C120.647 96.8669 138.685 102.329 153.903 103.369C155.258 103.369 157.461 104.554 154.838 107.217L62.7078 198.172C61.6519 199.214 60.2196 199.8 58.7261 199.8H2.81963C0.312262 199.8 -0.943083 196.81 0.830393 195.062L108.38 89.062C95.1282 80.3135 86.4137 65.4972 86.412 48.6929C86.412 21.8046 108.717 0 136.231 0H136.919ZM137.915 37.4578C131.566 37.4578 126.418 40.8112 126.418 44.9478C126.421 48.3582 129.924 51.227 134.711 52.1307C135.177 52.328 135.691 52.438 136.231 52.438H139.644C139.65 52.4045 139.645 52.369 139.651 52.3356C145.175 51.7899 149.409 48.698 149.412 44.9478C149.412 40.8112 144.264 37.4578 137.915 37.4578Z" fill="black"/>
</g>
<defs>
<clipPath id="clip0_1_7">
<rect width="322" height="222" fill="white"/>
</clipPath>
</defs>
</svg>
